<svg xmlns="http://www.w3.org/2000/svg" xmlns:xlink="http://www.w3.org/1999/xlink">

<symbol id="home-icon" viewBox="0 0 160 160"><path d="m 0 80 c 0 -44.1989 35.8011 -80 80 -80 c 44.1989 0 80 35.8011 80 80 c 0 5.52486 -0.55939 10.9185 -1.62465 16.1274 c -1.06527 5.20891 -2.6364 10.2331 -4.65988 15.019 c -2.02348 4.78591 -4.49931 9.33356 -7.37396 13.5894 c -2.87466 4.25587 -6.14814 8.21996 -9.76692 11.8387 c -3.61879 3.61878 -7.58288 6.89226 -11.8387 9.76692 l 0 -56.3415 l 20.2642 0 l -64.5 -65 l -65.5 65 l 20.2642 0 l 0 56.3415 c -4.25587 -2.87466 -8.21996 -6.14814 -11.8387 -9.76692 c -3.61878 -3.61879 -6.89226 -7.58288 -9.76692 -11.8387 c -2.87465 -4.25587 -5.35048 -8.80352 -7.37396 -13.5894 c -2.02348 -4.78591 -3.59461 -9.81008 -4.65988 -15.019 c -1.06526 -5.20891 -1.62465 -10.6026 -1.62465 -16.1274 Z"></path></symbol>

</svg>
